# xmcd
#
# Track frame offsets:
#	150
#	13368
#	27264
#	42416
#	56024
#	68095
#	83790
#	98310
#	111349
#	128134
#	137882
#	154450
#
# Disc length: 2217 seconds
#
# Revision: 0
# Processed by: cddbd v1.5.2PL0 Copyright (c) Steve Scherf et al.
# Submitted via: audiograbber 1.83.01
#
DISCID=a308a70c
DTITLE=Mireille Mathieu - Mireille Mathieu
DYEAR=1900
DGENRE=Chanson
TTITLE0=Hans Im Glück
TTITLE1=Pleure Mon Coeur
TTITLE2=En Frappant Dans Nos Mains (Denn Ich Liebe Die Welt)
TTITLE3=Aber Dich Vergeß' Ich Nie
TTITLE4=Le Chemin Du Ciel
TTITLE5=Adieu Je T'aime
TTITLE6=Die Größte Schau Der Welt - La Musique
TTITLE7=La Chanson Du Départ
TTITLE8=Raconte-moi La Mer
TTITLE9=Klaus
TTITLE10=Ils S'en Vont Tous Un Jour
TTITLE11=Das Glück Geht Auf Die Reise
EXTD=
EXTT0=
EXTT1=
EXTT2=
EXTT3=
EXTT4=
EXTT5=
EXTT6=
EXTT7=
EXTT8=
EXTT9=
EXTT10=
EXTT11=
PLAYORDER=
